<?xml version="1.0" standalone="no"?>
<!DOCTYPE svg PUBLIC "-//W3C//DTD SVG 20010904//EN"
 "http://www.w3.org/TR/2001/REC-SVG-20010904/DTD/svg10.dtd">
<svg version="1.0" xmlns="http://www.w3.org/2000/svg"
 width="800px" height="800px" viewBox="0 0 100.000000 100.000000"
 preserveAspectRatio="xMidYMid meet">

<g transform="translate(0.000000,100.000000) scale(0.100000,-0.100000)"
fill="#ffffff" stroke="none">
<path d="M0 832 c0 -24 32 -56 227 -225 125 -109 237 -200 250 -203 13 -4 33
-4 46 0 13 3 126 94 250 202 197 171 227 201 227 226 l0 28 -500 0 -500 0 0
-28z"/>
<path d="M0 499 c0 -239 1 -251 18 -237 9 8 75 61 147 118 72 56 131 105 132
108 1 4 -46 48 -104 97 -57 50 -124 107 -149 128 l-44 39 0 -253z"/>
<path d="M847 619 c-82 -72 -147 -132 -145 -134 2 -1 69 -55 151 -119 l147
-116 0 250 c0 138 -1 250 -2 250 -2 -1 -70 -60 -151 -131z"/>
<path d="M166 329 c-147 -116 -166 -134 -166 -160 l0 -29 501 0 500 0 -3 32
c-3 28 -23 47 -166 160 l-163 129 -49 -41 c-90 -76 -145 -77 -234 -5 l-54 45
-166 -131z"/>
</g>
</svg>
